
 
http://desibbrg.net/imghost/show.php?img=429884_vlcsnap2013022508h47m28s143.png.html 
http://desibbrg.net/imghost/show.php?img=429883_vlcsnap2013022508h47m23s96.png.html 
http://desibbrg.net/imghost/show.php?img=429882_vlcsnap2013022508h47m21s62.png.html 
http://desibbrg.net/imghost/show.php?img=429881_vlcsnap2013022508h47m08s181.png.html 
http://desibbrg.net/imghost/show.php?img=429880_vlcsnap2013022508h47m02s129.png.html 
http://desibbrg.net/imghost/show.php?img=429885_The.Oscars.2013.The.85th.Annual.Academy.Awards.2013.EXD.RRG.DBB.DADA.mp4thumbs2013.02.2611.18.22.jpg.html



General

Format                           : MPEG-4
Format profile                   : Base Media / Version 2
Codec ID                         : mp42
File size                        : 891 MiB
Duration                         : 2h 53mn
Overall bit rate                 : 718 Kbps
Encoded date                     : UTC 2013-02-25 11:41:35
Tagged date                      : UTC 2013-02-25 11:55:45


Video
ID                               : 1
Format                           : AVC
Format/Info                      : Advanced Video Codec
Format profile                   : Main@L3.0
Format settings, CABAC           : Yes
Format settings, ReFrames        : 4 frames
Codec ID                         : avc1
Codec ID/Info                    : Advanced Video Coding
Duration                         : 2h 53mn
Bit rate mode                    : Variable
Bit rate                         : 550 Kbps
Width                            : 720 pixels
Height                           : 404 pixels
Display aspect ratio             : 16:9
Frame rate mode                  : Variable
Frame rate                       : 29.970 fps
Minimum frame rate               : 9.990 fps
Maximum frame rate               : 29.970 fps
Color space                      : YUV
Chroma subsampling               : 4:2:0
Bit depth                        : 8 bits
Scan type                        : Progressive
Bits/(Pixel*Frame)               : 0.063
Stream size                      : 686 MiB (77%)
Writing library                  : x264 core 120

Audio
ID                               : 2
Format                           : AAC
Format/Info                      : Advanced Audio Codec
Format version                   : Version 4
Format profile                   : LC
Format settings, SBR             : No
Codec ID                         : 40
Duration                         : 2h 53mn
Bit rate mode                    : Variable
Bit rate                         : 160 Kbps
Maximum bit rate                 : 321 Kbps
Channel(s)                       : 2 channels
Channel positions                : Front: L R
Sampling rate                    : 48.0 KHz
Stream size                      : 198 MiB (22%)